<svg width="24" height="24" viewBox="0 0 24 24" fill="none" xmlns="http://www.w3.org/2000/svg">
  <circle cx="12" cy="10" r="4" stroke="#6b7589" stroke-width="1.5"/>
  <path d="M4 4L8 8M20 4L16 8M20 20L16 16M4 20L8 16" stroke="#6b7589" stroke-width="1.5" stroke-linecap="round"/>
  <path d="M12 14V18M12 18H9M12 18H15" stroke="#6b7589" stroke-width="1.5" stroke-linecap="round"/>
  <path d="M5 22H19C20.6569 22 22 20.6569 22 19V5C22 3.34315 20.6569 2 19 2H5C3.34315 2 2 3.34315 2 5V19C2 20.6569 3.34315 22 5 22Z" stroke="#6b7589" stroke-width="1.5"/>
</svg>